<?xml version="1.0" encoding="UTF-8" standalone="no"?>
<!DOCTYPE svg PUBLIC "-//W3C//DTD SVG 1.1//EN" "http://www.w3.org/Graphics/SVG/1.1/DTD/svg11.dtd">
<svg width="100%" height="100%" viewBox="0 0 64 64" version="1.1" xmlns="http://www.w3.org/2000/svg" xmlns:xlink="http://www.w3.org/1999/xlink" xml:space="preserve" xmlns:serif="http://www.serif.com/" style="fill-rule:evenodd;clip-rule:evenodd;stroke-linejoin:round;stroke-miterlimit:2;">
    <g>
        <g>
            <path d="M42.54,7.77L21.72,7.77C20.58,7.77 19.66,6.84 19.66,5.71L19.66,2.06C19.66,0.92 20.58,-0 21.72,-0L42.54,-0C43.68,-0 44.6,0.93 44.6,2.06L44.6,5.7C44.6,6.84 43.67,7.77 42.54,7.77ZM21.72,0.98C21.13,0.98 20.64,1.46 20.64,2.06L20.64,5.7C20.64,6.29 21.12,6.78 21.72,6.78L42.54,6.78C43.13,6.78 43.62,6.3 43.62,5.7L43.62,2.06C43.62,1.47 43.14,0.98 42.54,0.98L21.72,0.98Z" style="fill:white;fill-rule:nonzero;"/>
        </g>
        <g>
            <path d="M48.48,64L48.39,64L13.55,63.7C10.97,63.68 8.53,62.29 7.2,60.08C5.87,57.87 5.76,55.18 6.91,52.88L23.2,20.18L23.2,7.28C23.2,7.01 23.42,6.79 23.69,6.79C23.96,6.79 24.19,7 24.19,7.28L24.19,20.29C24.19,20.37 24.17,20.44 24.14,20.51L7.79,53.31C6.79,55.31 6.89,57.65 8.04,59.57C9.2,61.49 11.31,62.7 13.55,62.72L48.39,63.02L48.47,63.02C51.49,63.02 54.26,61.5 55.88,58.95C57.1,57.04 57.22,54.59 56.21,52.56L40.14,20.36C40.11,20.29 40.09,20.22 40.09,20.14L40.09,7.28C40.09,7.01 40.31,6.79 40.58,6.79C40.85,6.79 41.07,7.01 41.07,7.28L41.07,20.02L57.09,52.12C58.26,54.46 58.11,57.28 56.71,59.48C54.91,62.31 51.84,64 48.48,64Z" style="fill:white;fill-rule:nonzero;"/>
        </g>
        <g>
            <path d="M27.17,10.53L23.7,10.53C23.43,10.53 23.21,10.31 23.21,10.04C23.21,9.77 23.43,9.55 23.7,9.55L27.17,9.55C27.44,9.55 27.66,9.77 27.66,10.04C27.66,10.31 27.44,10.53 27.17,10.53Z" style="fill:white;fill-rule:nonzero;"/>
        </g>
        <g>
            <path d="M27.17,13.78L23.7,13.78C23.43,13.78 23.21,13.56 23.21,13.29C23.21,13.02 23.43,12.8 23.7,12.8L27.17,12.8C27.44,12.8 27.66,13.02 27.66,13.29C27.66,13.56 27.44,13.78 27.17,13.78Z" style="fill:white;fill-rule:nonzero;"/>
        </g>
        <g>
            <path d="M27.17,17.02L23.7,17.02C23.43,17.02 23.21,16.8 23.21,16.53C23.21,16.26 23.43,16.04 23.7,16.04L27.17,16.04C27.44,16.04 27.66,16.26 27.66,16.53C27.66,16.8 27.44,17.02 27.17,17.02Z" style="fill:white;fill-rule:nonzero;"/>
        </g>
        <g>
            <g>
                <path d="M21.66,54.71C20.06,54.71 18.75,53.41 18.75,51.8C18.75,50.19 20.05,48.89 21.66,48.89C23.27,48.89 24.57,50.19 24.57,51.8C24.57,53.41 23.27,54.71 21.66,54.71ZM21.66,49.87C20.6,49.87 19.74,50.73 19.74,51.79C19.74,52.85 20.6,53.71 21.66,53.71C22.72,53.71 23.58,52.85 23.58,51.79C23.58,50.73 22.73,49.87 21.66,49.87Z" style="fill:white;fill-rule:nonzero;"/>
            </g>
        </g>
        <g>
            <g>
                <path d="M30.21,46.38C28.61,46.38 27.3,45.08 27.3,43.47C27.3,41.87 28.6,40.56 30.21,40.56C31.82,40.56 33.12,41.86 33.12,43.47C33.12,45.08 31.82,46.38 30.21,46.38ZM30.21,41.55C29.15,41.55 28.29,42.41 28.29,43.47C28.29,44.53 29.15,45.39 30.21,45.39C31.27,45.39 32.13,44.53 32.13,43.47C32.13,42.41 31.27,41.55 30.21,41.55Z" style="fill:white;fill-rule:nonzero;"/>
            </g>
        </g>
        <g>
            <g>
                <path d="M35.22,54.71C33.62,54.71 32.31,53.41 32.31,51.8C32.31,50.19 33.61,48.89 35.22,48.89C36.82,48.89 38.13,50.19 38.13,51.8C38.13,53.41 36.83,54.71 35.22,54.71ZM35.22,49.87C34.16,49.87 33.3,50.73 33.3,51.79C33.3,52.85 34.16,53.71 35.22,53.71C36.28,53.71 37.14,52.85 37.14,51.79C37.14,50.73 36.29,49.87 35.22,49.87Z" style="fill:white;fill-rule:nonzero;"/>
            </g>
        </g>
    </g>
</svg>
